<svg width="60" height="60" viewBox="0 0 60 60" fill="none" xmlns="http://www.w3.org/2000/svg">
<path d="M30 12C29.606 11.9999 29.2159 12.0774 28.8518 12.2282C28.4878 12.3789 28.1571 12.5999 27.8785 12.8785C27.5999 13.157 27.3789 13.4878 27.2282 13.8518C27.0774 14.2159 26.9999 14.606 27 15V28.1514L19.708 31.8208C19.3562 31.9978 19.0427 32.2423 18.7853 32.5405C18.528 32.8386 18.3319 33.1845 18.2083 33.5584C18.0846 33.9324 18.0358 34.327 18.0647 34.7198C18.0935 35.1126 18.1995 35.4958 18.3765 35.8476C18.5534 36.1995 18.798 36.513 19.0961 36.7704C19.3943 37.0277 19.7402 37.2238 20.1141 37.3474C20.488 37.4711 20.8827 37.5198 21.2754 37.491C21.6682 37.4621 22.0515 37.3562 22.4033 37.1792L31.3477 32.6792C31.8445 32.4299 32.2622 32.0472 32.554 31.5741C32.8458 31.1009 33.0003 30.5559 33 30V15C33.0001 14.606 32.9226 14.2159 32.7719 13.8518C32.6211 13.4878 32.4002 13.157 32.1216 12.8785C31.843 12.5999 31.5122 12.3789 31.1482 12.2282C30.7842 12.0774 30.394 11.9999 30 12ZM30 0C24.0666 0 18.2664 1.75947 13.3329 5.05591C8.39943 8.35235 4.55426 13.0377 2.28363 18.5195C0.0129985 24.0013 -0.581102 30.0333 0.576455 35.8527C1.73401 41.6721 4.59123 47.0176 8.78681 51.2132C12.9824 55.4088 18.3279 58.266 24.1473 59.4236C29.9667 60.5811 35.9987 59.987 41.4805 57.7164C46.9623 55.4458 51.6477 51.6006 54.9441 46.6671C58.2405 41.7336 60 35.9334 60 30C59.9909 22.0463 56.8273 14.421 51.2032 8.79685C45.579 3.17273 37.9537 0.00909931 30 0ZM30 54C25.2533 54 20.6131 52.5924 16.6663 49.9553C12.7195 47.3181 9.64341 43.5698 7.82691 39.1844C6.0104 34.799 5.53512 29.9734 6.46117 25.3178C7.38721 20.6623 9.67299 16.3859 13.0295 13.0294C16.3859 9.67298 20.6623 7.3872 25.3178 6.46115C29.9734 5.53511 34.799 6.01039 39.1844 7.82689C43.5698 9.6434 47.3181 12.7195 49.9553 16.6663C52.5924 20.6131 54 25.2532 54 30C53.9927 36.363 51.4618 42.4632 46.9625 46.9625C42.4632 51.4618 36.363 53.9927 30 54Z" fill="#1F91FF"/>
</svg>
