<svg width="60" height="60" viewBox="0 0 60 60" fill="none" xmlns="http://www.w3.org/2000/svg">
<path d="M39 27H33V15C33 14.2044 32.6839 13.4413 32.1213 12.8787C31.5587 12.3161 30.7957 12 30 12C29.2044 12 28.4413 12.3161 27.8787 12.8787C27.3161 13.4413 27 14.2044 27 15V30C27 30.7956 27.3161 31.5587 27.8787 32.1213C28.4413 32.6839 29.2044 33 30 33H39C39.7957 33 40.5587 32.6839 41.1213 32.1213C41.6839 31.5587 42 30.7956 42 30C42 29.2044 41.6839 28.4413 41.1213 27.8787C40.5587 27.3161 39.7957 27 39 27ZM30 0C24.0666 0 18.2664 1.75947 13.3329 5.05591C8.39943 8.35235 4.55426 13.0377 2.28363 18.5195C0.0129985 24.0013 -0.581101 30.0333 0.576455 35.8527C1.73401 41.6721 4.59123 47.0176 8.78681 51.2132C12.9824 55.4088 18.3279 58.266 24.1473 59.4236C29.9667 60.5811 35.9987 59.987 41.4805 57.7164C46.9623 55.4458 51.6477 51.6006 54.9441 46.6671C58.2405 41.7336 60 35.9334 60 30C59.9912 22.0462 56.8276 14.4207 51.2034 8.79657C45.5793 3.17239 37.9538 0.00884574 30 0ZM30 54C25.2533 54 20.6131 52.5924 16.6663 49.9553C12.7195 47.3181 9.64341 43.5698 7.8269 39.1844C6.0104 34.799 5.53512 29.9734 6.46117 25.3178C7.38721 20.6623 9.67299 16.3859 13.0294 13.0294C16.3859 9.67298 20.6623 7.3872 25.3178 6.46115C29.9734 5.53511 34.799 6.01039 39.1844 7.82689C43.5698 9.6434 47.3181 12.7195 49.9553 16.6663C52.5924 20.6131 54 25.2532 54 30C53.9927 36.363 51.4618 42.4632 46.9625 46.9625C42.4632 51.4618 36.363 53.9927 30 54Z" fill="#6B9400"/>
</svg>
