<svg width="46" height="51" viewBox="0 0 46 51" fill="none" xmlns="http://www.w3.org/2000/svg">
<path fill-rule="evenodd" clip-rule="evenodd" d="M30.3259 0.588859C31.3542 0.707421 32.0882 1.6093 31.9657 2.60327L30.3712 15.5258C30.2487 16.5198 29.3157 17.2295 28.2874 17.1109C27.2592 16.9924 26.5249 16.0905 26.6477 15.0965L28.2419 2.17395C28.3647 1.17998 29.2977 0.470321 30.3259 0.588859ZM14.6301 4.65401C15.6583 4.77257 16.3925 5.67444 16.2699 6.66839L14.6755 19.5911C14.5528 20.585 13.6198 21.2946 12.5916 21.1762C11.5634 21.0575 10.8292 20.1556 10.9519 19.1617L12.5462 6.2391C12.6689 5.24512 13.6019 4.53547 14.6301 4.65401Z" fill="#92BD22"/>
<path fill-rule="evenodd" clip-rule="evenodd" d="M38.59 23.8365C37.3825 23.6796 35.7635 23.6758 33.3535 23.6758H5.22852V33.9466C5.22852 37.4155 5.23249 39.8348 5.48639 41.6604C5.73302 43.4337 6.18414 44.3726 6.87604 45.0415C7.56794 45.7105 8.53939 46.1464 10.3738 46.385C12.2622 46.6302 14.765 46.6341 18.3535 46.6341H28.3535C31.942 46.6341 34.4448 46.6302 36.3333 46.385C38.1678 46.1464 39.139 45.7105 39.831 45.0415C40.523 44.3726 40.974 43.4337 41.2208 41.6604C41.4745 39.8348 41.4785 37.4155 41.4785 33.9466V31.5299C41.4785 29.2003 41.4745 27.6352 41.3123 26.468C41.157 25.3527 40.889 24.8754 40.5633 24.5605C40.2375 24.2456 39.7438 23.9866 38.59 23.8365ZM39.0898 20.2439C40.6593 20.4478 42.0763 20.8966 43.2148 21.9974C44.3535 23.098 44.8178 24.4677 45.0288 25.9849C45.2288 27.4223 45.2285 29.2329 45.2285 31.4043V34.0793C45.2285 37.3843 45.2285 40.0482 44.9373 42.1435C44.6348 44.3187 43.9875 46.1501 42.4828 47.6049C40.9778 49.0595 39.0833 49.6852 36.833 49.9776C34.6655 50.2591 31.9098 50.2591 28.4908 50.2591H18.2163C14.7974 50.2591 12.0416 50.2591 9.87414 49.9776C7.62387 49.6852 5.72919 49.0595 4.22439 47.6049C2.71959 46.1501 2.07237 44.3187 1.76982 42.1435C1.47842 40.0482 1.47847 37.3843 1.47852 34.0793V20.0508H33.4835C35.7298 20.0508 37.6028 20.0505 39.0898 20.2439Z" fill="#6B9400"/>
<path fill-rule="evenodd" clip-rule="evenodd" d="M38.4998 6.65765C37.4935 4.68519 35.3573 3.49288 33.087 3.63672C32.5808 3.66881 31.9578 3.82104 30.188 4.27948L12.6806 8.81421C10.3903 9.40741 8.7942 9.82264 7.5864 10.2517C6.40287 10.6722 5.76802 11.0484 5.32935 11.4725C4.63115 12.1474 4.12905 12.9881 3.8735 13.91C3.71292 14.4893 3.69327 15.2089 3.90835 16.4099C4.06475 17.2833 4.32603 18.3181 4.68533 19.6419L38.4898 10.8859C38.7825 10.8101 38.9568 10.7647 39.0868 10.7263C39.169 10.7021 39.204 10.689 39.2125 10.6857C39.435 10.5775 39.57 10.3517 39.5555 10.1112C39.5543 10.1025 39.5485 10.0667 39.5293 9.98562C39.4985 9.85758 39.452 9.68905 39.3735 9.40601C38.8993 7.6951 38.7243 7.09761 38.4998 6.65765ZM32.8418 0.0195032C36.6255 -0.22023 40.186 1.76692 41.8633 5.05434C42.273 5.85788 42.5433 6.83363 42.9398 8.26519C42.958 8.33173 42.9768 8.39925 42.9958 8.46778C43.006 8.50505 43.0165 8.54248 43.027 8.58004C43.1455 9.00453 43.2685 9.44624 43.2973 9.86935C43.413 11.5762 42.4538 13.1824 40.8668 13.939C40.4733 14.1265 40.016 14.2442 39.5765 14.3574C39.5375 14.3674 39.4988 14.3774 39.4603 14.3874L2.03065 24.0823L1.5222 22.248C0.9371 20.1373 0.465199 18.4349 0.213299 17.0283C-0.0463256 15.5785 -0.1083 14.269 0.251275 12.9718C0.6772 11.4352 1.51405 10.0341 2.6777 8.90924C3.66005 7.95963 4.86417 7.35677 6.29282 6.84922C7.67895 6.3568 9.44002 5.90068 11.6236 5.33511L29.2175 0.777998C29.2883 0.759631 29.3583 0.741506 29.427 0.723671C30.9078 0.33976 31.917 0.0780832 32.8418 0.0195032Z" fill="#6B9400"/>
</svg>
