<svg width="71" height="70" viewBox="0 0 71 70" fill="none" xmlns="http://www.w3.org/2000/svg">
<ellipse cx="35.5" cy="35" rx="35.5" ry="35" fill="#CBEB78"/>
<circle cx="35" cy="35" r="35" fill="#BBE74A"/>
<path d="M11.875 19.6619C11.875 15.3613 15.3613 11.875 19.6619 11.875C23.9625 11.875 27.4488 15.3613 27.4488 19.6619V59.375C18.8476 59.375 11.875 52.4024 11.875 43.8012V19.6619Z" fill="#E3FF96"/>
<path d="M43.0225 19.6619C43.0225 15.3613 46.5088 11.875 50.8093 11.875C55.1099 11.875 58.5962 15.3613 58.5962 19.6619V43.8012C58.5962 52.4024 51.6236 59.375 43.0225 59.375V19.6619Z" fill="#E3FF96"/>
<path d="M27.4492 19.6619C27.4492 15.3613 30.9355 11.875 35.2361 11.875C39.5367 11.875 43.023 15.3613 43.023 19.6619V59.375H27.4492V19.6619Z" fill="#E3FF96"/>
<path d="M38.3501 37.5635C38.3501 42.7196 41.8364 42.2315 46.1369 42.2315C50.4375 42.2315 53.9238 42.7196 53.9238 37.5635C53.9238 32.4074 50.4375 28.2275 46.1369 28.2275C41.8364 28.2275 38.3501 32.4074 38.3501 37.5635Z" fill="#F9F4F2"/>
<path d="M16.5473 37.5635C16.5473 42.7196 20.0336 42.2315 24.3342 42.2315C28.6348 42.2315 32.1211 42.7196 32.1211 37.5635C32.1211 32.4074 28.6348 28.2275 24.3342 28.2275C20.0336 28.2275 16.5473 32.4074 16.5473 37.5635Z" fill="#F9F4F2"/>
<path d="M40.6859 38.4135C40.6859 42.3188 43.3006 42.2438 46.526 42.2438C49.7515 42.2438 52.3662 42.3188 52.3662 38.4135C52.3662 34.5081 49.7515 31.3422 46.526 31.3422C43.3006 31.3422 40.6859 34.5081 40.6859 38.4135Z" fill="#1B1B1B"/>
<path d="M18.8831 38.4135C18.8831 42.3188 21.4979 42.2438 24.7233 42.2438C27.9487 42.2438 30.5635 42.3188 30.5635 38.4135C30.5635 34.5081 27.9487 31.3422 24.7233 31.3422C21.4979 31.3422 18.8831 34.5081 18.8831 38.4135Z" fill="#1B1B1B"/>
<path d="M29.0059 46.9159C33.4125 49.9088 35.958 50.1502 40.6862 46.9159" stroke="#1B1B1B" stroke-width="2" stroke-linecap="round"/>
<path d="M11.875 19.6619C11.875 15.3613 15.3613 11.875 19.6619 11.875C23.9625 11.875 27.4488 15.3613 27.4488 19.6619V59.375C18.8476 59.375 11.875 52.4024 11.875 43.8012V19.6619Z" fill="#F0FFC6"/>
<path d="M43.0225 19.6619C43.0225 15.3613 46.5088 11.875 50.8093 11.875C55.1099 11.875 58.5962 15.3613 58.5962 19.6619V43.8012C58.5962 52.4024 51.6236 59.375 43.0225 59.375V19.6619Z" fill="#F0FFC6"/>
<path d="M27.4492 19.6619C27.4492 15.3613 30.9355 11.875 35.2361 11.875C39.5367 11.875 43.023 15.3613 43.023 19.6619V59.375H27.4492V19.6619Z" fill="#F0FFC6"/>
<path d="M38.3501 37.5635C38.3501 42.7196 41.8364 42.2315 46.1369 42.2315C50.4375 42.2315 53.9238 42.7196 53.9238 37.5635C53.9238 32.4074 50.4375 28.2275 46.1369 28.2275C41.8364 28.2275 38.3501 32.4074 38.3501 37.5635Z" fill="#F9F4F2"/>
<path d="M16.5473 37.5635C16.5473 42.7196 20.0336 42.2315 24.3342 42.2315C28.6348 42.2315 32.1211 42.7196 32.1211 37.5635C32.1211 32.4074 28.6348 28.2275 24.3342 28.2275C20.0336 28.2275 16.5473 32.4074 16.5473 37.5635Z" fill="#F9F4F2"/>
<path d="M40.6859 38.4135C40.6859 42.3188 43.3006 42.2438 46.526 42.2438C49.7515 42.2438 52.3662 42.3188 52.3662 38.4135C52.3662 34.5081 49.7515 31.3422 46.526 31.3422C43.3006 31.3422 40.6859 34.5081 40.6859 38.4135Z" fill="#1B1B1B"/>
<path d="M18.8831 38.4135C18.8831 42.3188 21.4979 42.2438 24.7233 42.2438C27.9487 42.2438 30.5635 42.3188 30.5635 38.4135C30.5635 34.5081 27.9487 31.3422 24.7233 31.3422C21.4979 31.3422 18.8831 34.5081 18.8831 38.4135Z" fill="#1B1B1B"/>
<path d="M29.0059 46.9159C33.4125 49.9088 35.958 50.1502 40.6862 46.9159" stroke="#1B1B1B" stroke-width="2" stroke-linecap="round"/>
</svg>
