<svg width="47" height="48" viewBox="0 0 47 48" fill="none" xmlns="http://www.w3.org/2000/svg">
<path d="M0 7.78688C0 3.48631 3.48631 0 7.78689 0C12.0875 0 15.5738 3.48631 15.5738 7.78688V47.5C6.97262 47.5 0 40.5274 0 31.9262V7.78688Z" fill="#95ACFE"/>
<path d="M31.1475 7.78688C31.1475 3.48631 34.6338 0 38.9343 0C43.2349 0 46.7212 3.48631 46.7212 7.78688V31.9262C46.7212 40.5274 39.7486 47.5 31.1475 47.5V7.78688Z" fill="#95ACFE"/>
<path d="M15.574 7.78688C15.574 3.48631 19.0603 0 23.3609 0C27.6614 0 31.1477 3.48631 31.1477 7.78688V47.5H15.574V7.78688Z" fill="#95ACFE"/>
<path d="M26.4753 25.6885C26.4753 30.8446 29.9616 30.3565 34.2622 30.3565C38.5628 30.3565 42.0491 30.8446 42.0491 25.6885C42.0491 20.5324 38.5628 16.3525 34.2622 16.3525C29.9616 16.3525 26.4753 20.5324 26.4753 25.6885Z" fill="#F9F4F2"/>
<path d="M4.67208 25.6885C4.67208 30.8446 8.15839 30.3565 12.459 30.3565C16.7595 30.3565 20.2458 30.8446 20.2458 25.6885C20.2458 20.5324 16.7595 16.3525 12.459 16.3525C8.15839 16.3525 4.67208 20.5324 4.67208 25.6885Z" fill="#F9F4F2"/>
<path d="M28.8111 26.5385C28.8111 30.4438 31.4259 30.3688 34.6513 30.3688C37.8767 30.3688 40.4915 30.4438 40.4915 26.5385C40.4915 22.6331 37.8767 19.4672 34.6513 19.4672C31.4259 19.4672 28.8111 22.6331 28.8111 26.5385Z" fill="#1B1B1B"/>
<path d="M7.00791 26.5385C7.00791 30.4438 9.62263 30.3688 12.8481 30.3688C16.0735 30.3688 18.6882 30.4438 18.6882 26.5385C18.6882 22.6331 16.0735 19.4672 12.8481 19.4672C9.62263 19.4672 7.00791 22.6331 7.00791 26.5385Z" fill="#1B1B1B"/>
<path d="M17.1311 35.0409C21.5378 38.0338 24.0833 38.2752 28.8114 35.0409" stroke="#1B1B1B" stroke-width="2" stroke-linecap="round"/>
</svg>
