<svg width="41" height="39" viewBox="0 0 41 39" fill="none" xmlns="http://www.w3.org/2000/svg">
<path d="M38.95 23.4C38.4063 23.4 37.8849 23.6054 37.5004 23.9711C37.116 24.3368 36.9 24.8328 36.9 25.35V33.15C36.9 33.6672 36.684 34.1632 36.2996 34.5289C35.9151 34.8946 35.3937 35.1 34.85 35.1H6.15C5.60631 35.1 5.08488 34.8946 4.70043 34.5289C4.31598 34.1632 4.1 33.6672 4.1 33.15V25.35C4.1 24.8328 3.88402 24.3368 3.49957 23.9711C3.11512 23.6054 2.59369 23.4 2.05 23.4C1.50631 23.4 0.984881 23.6054 0.600431 23.9711C0.215981 24.3368 0 24.8328 0 25.35V33.15C0 34.7015 0.647945 36.1895 1.80129 37.2866C2.95464 38.3837 4.51892 39 6.15 39H34.85C36.4811 39 38.0454 38.3837 39.1987 37.2866C40.3521 36.1895 41 34.7015 41 33.15V25.35C41 24.8328 40.784 24.3368 40.3996 23.9711C40.0151 23.6054 39.4937 23.4 38.95 23.4ZM19.0445 26.7345C19.2395 26.912 19.4694 27.0512 19.721 27.144C19.9664 27.2472 20.2317 27.3005 20.5 27.3005C20.7683 27.3005 21.0336 27.2472 21.279 27.144C21.5306 27.0512 21.7605 26.912 21.9555 26.7345L30.1555 18.9345C30.5415 18.5673 30.7584 18.0693 30.7584 17.55C30.7584 17.0307 30.5415 16.5327 30.1555 16.1655C29.7695 15.7983 29.2459 15.592 28.7 15.592C28.1541 15.592 27.6305 15.7983 27.2445 16.1655L22.55 20.6505V1.95C22.55 1.43283 22.334 0.936838 21.9496 0.571142C21.5651 0.205446 21.0437 0 20.5 0C19.9563 0 19.4349 0.205446 19.0504 0.571142C18.666 0.936838 18.45 1.43283 18.45 1.95V20.6505L13.7555 16.1655C13.5644 15.9837 13.3374 15.8395 13.0877 15.7411C12.838 15.6427 12.5703 15.592 12.3 15.592C12.0297 15.592 11.762 15.6427 11.5123 15.7411C11.2626 15.8395 11.0356 15.9837 10.8445 16.1655C10.6534 16.3473 10.5017 16.5632 10.3983 16.8007C10.2949 17.0383 10.2416 17.2929 10.2416 17.55C10.2416 17.8071 10.2949 18.0617 10.3983 18.2993C10.5017 18.5368 10.6534 18.7527 10.8445 18.9345L19.0445 26.7345Z" fill="#1B1B1B"/>
</svg>
