<svg width="70" height="70" viewBox="0 0 70 70" fill="none" xmlns="http://www.w3.org/2000/svg">
<circle cx="35" cy="35" r="35" fill="#BBE74A"/>
<path d="M52.95 38.4C52.4063 38.4 51.8849 38.5791 51.5004 38.8979C51.116 39.2167 50.9 39.6491 50.9 40.1V46.9C50.9 47.3509 50.684 47.7833 50.2996 48.1021C49.9151 48.4209 49.3937 48.6 48.85 48.6H20.15C19.6063 48.6 19.0849 48.4209 18.7004 48.1021C18.316 47.7833 18.1 47.3509 18.1 46.9V40.1C18.1 39.6491 17.884 39.2167 17.4996 38.8979C17.1151 38.5791 16.5937 38.4 16.05 38.4C15.5063 38.4 14.9849 38.5791 14.6004 38.8979C14.216 39.2167 14 39.6491 14 40.1V46.9C14 48.2526 14.6479 49.5498 15.8013 50.5062C16.9546 51.4627 18.5189 52 20.15 52H48.85C50.4811 52 52.0454 51.4627 53.1987 50.5062C54.3521 49.5498 55 48.2526 55 46.9V40.1C55 39.6491 54.784 39.2167 54.3996 38.8979C54.0151 38.5791 53.4937 38.4 52.95 38.4ZM33.0445 41.307C33.2395 41.4618 33.4694 41.5831 33.721 41.664C33.9664 41.7539 34.2317 41.8004 34.5 41.8004C34.7683 41.8004 35.0336 41.7539 35.279 41.664C35.5306 41.5831 35.7605 41.4618 35.9555 41.307L44.1555 34.507C44.5415 34.1869 44.7584 33.7527 44.7584 33.3C44.7584 32.8473 44.5415 32.4131 44.1555 32.093C43.7695 31.7729 43.2459 31.593 42.7 31.593C42.1541 31.593 41.6305 31.7729 41.2445 32.093L36.55 36.003V19.7C36.55 19.2491 36.334 18.8167 35.9496 18.4979C35.5651 18.1791 35.0437 18 34.5 18C33.9563 18 33.4349 18.1791 33.0504 18.4979C32.666 18.8167 32.45 19.2491 32.45 19.7V36.003L27.7555 32.093C27.5644 31.9345 27.3374 31.8088 27.0877 31.723C26.838 31.6372 26.5703 31.593 26.3 31.593C26.0297 31.593 25.762 31.6372 25.5123 31.723C25.2626 31.8088 25.0356 31.9345 24.8445 32.093C24.6534 32.2515 24.5017 32.4397 24.3983 32.6468C24.2949 32.8539 24.2416 33.0758 24.2416 33.3C24.2416 33.5242 24.2949 33.7461 24.3983 33.9532C24.5017 34.1603 24.6534 34.3485 24.8445 34.507L33.0445 41.307Z" fill="#1B1B1B"/>
</svg>
