<svg width="47" height="47" viewBox="0 0 47 47" fill="none" xmlns="http://www.w3.org/2000/svg">
<path d="M46.5219 15.4375C46.0196 13.9713 45.1752 12.911 44.0793 12.372C43.5764 12.1251 43.0486 12 42.5108 12C40.2163 12 37.8848 14.3334 36.7092 17.8067C35.2542 22.1092 36.1002 26.3236 38.677 27.6096C39.1951 27.8685 39.75 28 40.3263 28C42.6634 28 45.0387 25.8601 46.2367 22.6755C47.1419 20.2651 47.2484 17.5596 46.5219 15.4375Z" fill="#1F91FF"/>
<path d="M11.2263 17.8067C9.94383 14.3334 7.40045 12 4.89733 12C4.31071 12 3.73483 12.1251 3.18621 12.372C1.99058 12.911 1.06946 13.9713 0.521584 15.4375C-0.27104 17.5596 -0.15479 20.2651 0.832835 22.6755C2.13971 25.8601 4.73096 28 7.28046 28C7.90895 28 8.51433 27.8685 9.0797 27.6096C11.8907 26.3236 12.8136 22.1092 11.2263 17.8067Z" fill="#1F91FF"/>
<path d="M15.5068 16.9957C15.7201 17.0051 15.9353 16.9991 16.1463 16.9782C17.3863 16.8554 18.5074 16.2137 19.3888 15.1223C20.8108 13.3612 21.2057 10.604 20.9062 7.76776C20.4485 3.39679 18.1648 0.134596 15.0964 0C15.0964 0 14.6583 0.000927544 14.4354 0.0223749C13.0817 0.157319 11.8512 0.866704 10.8768 2.07378C9.46396 3.82446 8.78494 6.42933 9.06025 9.04173C9.5127 13.3633 12.3444 16.8569 15.5068 16.9957Z" fill="#1F91FF"/>
<path d="M23.5 21C15.25 21 7 30.5092 7 39.641C7 42.3657 8.4092 44.5574 9.79301 45.4556C11.5021 46.5645 12.7066 47 15.2118 47C18.1887 47 18.992 45.9903 20.3856 45.0994C21.3935 44.4554 22.264 43.8988 23.5001 43.8988C24.7362 43.8988 25.6067 44.4554 26.6145 45.0994C28.0081 45.9903 28.8113 47 31.7883 47C34.2934 47 35.4979 46.5645 37.207 45.4556C38.5908 44.5574 40 42.3657 40 39.641C40 30.5092 31.75 21 23.5 21Z" fill="#1F91FF"/>
<path d="M30.8537 16.9781C31.0647 16.9992 31.28 17.005 31.4931 16.9956C34.6556 16.8568 37.4874 13.3587 37.9398 9.03184C38.2151 6.41613 37.5358 3.80784 36.1231 2.05506C35.1487 0.846445 33.9639 0.171332 32.6101 0.036217C32.3872 0.0146264 31.9036 0 31.9036 0C28.8352 0.134767 26.5513 3.37963 26.0937 7.75602C25.7944 10.596 26.1891 13.3566 27.6111 15.1199C28.4925 16.2127 29.6137 16.8552 30.8537 16.9781Z" fill="#1F91FF"/>
</svg>
