<svg width="61" height="57" viewBox="0 0 61 57" fill="none" xmlns="http://www.w3.org/2000/svg">
<path d="M38.3411 36.4449C38.3411 36.4449 63.2573 20.1154 60.4935 1.42656C60.4661 1.1092 60.3276 0.808133 60.0982 0.567446C59.8434 0.352926 59.5163 0.222999 59.1699 0.198798C39.0612 -2.36891 21.4938 20.7854 21.4938 20.7854C6.25255 19.1281 7.36088 21.8881 0.407362 37.0572C-0.923337 39.9486 1.23331 40.9456 3.59821 40.1314L11.18 37.5316L20.322 46.0201L17.5229 53.0693C16.6475 55.2684 17.717 57.2719 20.8338 56.0377C37.1551 49.5752 40.1271 50.6074 38.3411 36.4449ZM41.9026 17.4804C40.8871 16.5274 40.3193 15.2531 40.3193 13.9269C40.3193 12.6007 40.8871 11.3265 41.9026 10.3735C42.3991 9.90875 42.9932 9.53929 43.6499 9.28698C44.3065 9.03468 45.0122 8.90467 45.7252 8.90467C46.4382 8.90467 47.144 9.03468 47.8006 9.28698C48.4572 9.53929 49.0514 9.90875 49.5479 10.3735C50.5634 11.3265 51.1311 12.6007 51.1311 13.9269C51.1311 15.2531 50.5634 16.5274 49.5479 17.4804C49.0514 17.9451 48.4572 18.3146 47.8006 18.5669C47.144 18.8192 46.4382 18.9492 45.7252 18.9492C45.0122 18.9492 44.3065 18.8192 43.6499 18.5669C42.9932 18.3146 42.3991 17.9451 41.9026 17.4804Z" fill="#EBA400"/>
</svg>
