<svg width="315" height="21" viewBox="0 0 315 21" fill="none" xmlns="http://www.w3.org/2000/svg">
<g clip-path="url(#clip0_426_1055)">
<path d="M287.499 20.3824V0.617661H314.89V20.3824H310.532L310.531 4.94119H291.856L291.856 20.3824H287.499ZM283.763 0.617661L283.763 4.94119L264.385 4.94243V8.64707H283.763V12.9706H264.385V16.0588H283.763V20.3824H260.028V0.619514L283.763 0.617661ZM252.931 0.617661V8.33825H256.995V20.0772H229.603V0.617661H252.931ZM233.961 12.6618V15.7531H252.637V12.6618H233.961ZM248.574 4.94119H233.961V8.33825H248.574V4.94119ZM225.868 0.617661V20.0772H221.51V0.617661H225.868ZM194.119 12.6618V20.0735H189.761V0.617661H214.04V8.33825H217.775V20.0735H213.417V12.6618H194.119ZM209.682 4.94119H194.119V8.33825H209.682V4.94119ZM158.38 0.617661H186.903V4.94119H175.454L175.454 20.0735H171.097L171.096 4.94119H158.38V0.617661ZM154.896 0.617661L154.897 4.94119L131.163 4.94243V7.86513H154.936V19.979H127.052V15.6555L150.578 15.6549V12.1887H126.806V0.619514L154.896 0.617661ZM92.6467 0.308838H123.151V20.0735H118.793L118.792 4.63237H110.077L110.078 20.0735H105.72L105.719 4.63237H97.0038L97.0044 20.0735H92.6467V0.308838ZM67.123 0.617661L67.1224 15.7531L88.2977 15.7537V20.0772H62.7653V0.617661H67.123ZM59.6527 0.617661V20.0772H55.2949V0.617661H59.6527ZM51.2634 0.617661V4.94119H27.903V7.77619H51.2634V12.0997H27.903L27.9036 20.0772H23.5459V0.617661H51.2634ZM3.97796 0.658426V4.36431H0V0.658426H3.97796ZM11.9513 0.658426V4.36431H7.97025V0.658426H11.9513ZM19.9197 0.658426V4.36431H15.9386V0.658426H19.9197Z" fill="#E54CCB"/>
</g>
<defs>
<clipPath id="clip0_426_1055">
<rect width="315" height="21" fill="white"/>
</clipPath>
</defs>
</svg>
