<svg width="266" height="79" viewBox="0 0 266 79" fill="none" xmlns="http://www.w3.org/2000/svg">
<g clip-path="url(#clip0_341_2631)">
<path d="M8.00743 19.4986V9.32437H9.06046C12.6419 9.32437 14.1556 10.8565 14.1556 14.3277C14.1556 17.7989 13.0313 19.4986 9.32371 19.4986H8.00743ZM8.00743 37.914V26.0281H9.68569C13.0916 26.0281 15.3841 27.6619 15.3841 31.8214C15.3841 35.6637 14.6327 37.914 9.95992 37.914H8.00743ZM23.2489 32.366C23.2489 27.1233 21.0551 24.2506 16.7114 22.6107C20.7315 21.2641 21.9381 17.1765 21.9381 13.7053C21.9381 7.60073 18.6474 2.54353 11.8192 2.54353H0.23584V44.6888H12.4773C20.7535 44.6888 23.2435 38.3389 23.2435 32.366H23.2489ZM45.4613 0.0478516L44.2821 3.21982C42.4635 2.46128 40.5306 2.08166 38.5837 2.10065C30.867 2.10065 25.1631 7.34338 25.1631 17.4099V29.8763C25.1631 35.3704 26.8413 39.3863 29.5836 41.8879L27.8505 46.4663H31.4209L32.4355 43.845C34.3991 44.7309 36.5086 45.1668 38.6331 45.1257C46.3498 45.1257 52.0537 40.1224 52.0537 29.8105V17.356C52.0537 11.6764 50.2054 7.54687 47.1889 4.9674L49.0372 0.0658061L45.4613 0.0478516ZM43.7282 14.0644C43.7748 14.6072 43.7913 15.1536 43.7776 15.6982V31.576C43.7776 36.6991 41.9402 38.1594 38.5837 38.1594C37.2984 38.2799 36.0188 37.8651 35.0023 36.9983L43.7282 14.0644ZM33.4557 31.7197V15.6563C33.4557 10.7129 35.2985 9.073 38.6495 9.073C39.7273 9.02339 40.7959 9.30766 41.7318 9.89293L33.4557 31.7197ZM62.9515 19.5225V9.37224H65.266C69.1051 9.37224 70.8602 10.8385 70.8602 14.0644C70.8602 17.2902 69.6536 19.4986 65.266 19.4986L62.9515 19.5225ZM72.1765 25.0705C75.7469 23.6102 78.3795 19.2233 78.3795 14.2978C78.3795 8.19323 75.0888 2.58543 67.6463 2.58543H55.1415V44.7307H62.9515V26.3872H64.6298L70.4379 44.6888H79.3503L72.1765 25.0705ZM88.833 44.6828V17.4877L97.8441 44.6888H107.497V2.54353H100.296V29.6788L91.1804 2.54353H81.566V44.6888L88.833 44.6828ZM129.918 37.6626H119.42V26.2016H129.084V19.2532H119.409V9.57573H129.358V2.54353H111.385V44.6888H129.835L129.918 37.6626ZM141.002 19.5225V9.34831H142.049C145.631 9.34831 147.134 10.8804 147.134 14.3516C147.134 17.8229 146.037 19.5405 142.313 19.5405L141.002 19.5225ZM141.002 37.9439V26.0281H142.68C146.086 26.0281 148.379 27.6619 148.379 31.8214C148.379 35.6637 147.627 37.914 142.954 37.914L141.002 37.9439ZM156.205 32.39C156.205 27.1472 154.011 24.2805 149.667 22.6347C153.693 21.2881 154.905 17.2004 154.905 13.7292C154.905 7.62467 151.615 2.56747 144.792 2.56747H133.214V44.7128H145.455C153.726 44.7128 156.183 38.3628 156.183 32.39H156.205ZM158.986 44.7128H166.977V2.54353H158.986V44.7128ZM191.849 9.57573V2.54353H171.447V44.6888H179.443V26.2615H189.315V19.2532H179.443V9.57573H191.849ZM215.328 9.57573V2.54353H194.92V44.6888H202.928V26.2615H212.8V19.2532H202.928V9.57573H215.328ZM236.85 37.7045H226.369V26.2316H236.065V19.2532H226.396V9.57573H236.351V2.54353H218.378V44.6888H236.822L236.85 37.7045ZM246.853 44.7247V17.4877L255.908 44.6888H265.583V2.54353H258.376V29.6788L249.256 2.54353H239.674V44.6888L246.853 44.7247ZM4.21213 74.0565C3.66119 74.0585 3.11098 74.0125 2.56677 73.9188C2.11978 73.8434 1.67827 73.7333 1.24499 73.5897C0.968969 73.5011 0.702378 73.3808 0.449737 73.2306L0.872046 71.2376C1.13805 71.4004 1.41721 71.5363 1.7057 71.6446C2.06384 71.7834 2.4302 71.8954 2.8026 71.9797C3.20564 72.0651 3.6151 72.1092 4.02565 72.1114C4.6249 72.1522 5.22281 72.0113 5.75328 71.7044C5.95113 71.5591 6.10984 71.3588 6.213 71.1242C6.31617 70.8896 6.36006 70.6291 6.34013 70.3698C6.35127 69.9944 6.24702 69.6257 6.04396 69.3225C5.78608 68.9932 5.47579 68.7174 5.12805 68.5085C4.7167 68.2512 4.20116 67.9579 3.57592 67.6347C3.03542 67.3499 2.52117 67.0092 2.04025 66.6173C1.57667 66.2365 1.17919 65.7683 0.866561 65.2348C0.579521 64.6919 0.419816 64.0801 0.401636 63.4536C0.383457 62.8272 0.507367 62.2055 0.762355 61.6439C1.00038 61.1802 1.33945 60.7876 1.74957 60.5008C2.18232 60.1981 2.65889 59.9776 3.1591 59.8485C4.37252 59.564 5.62952 59.5865 6.83374 59.9143C7.23301 60.0268 7.61802 60.1938 7.98 60.411L7.56318 62.3382C7.22056 62.1028 6.85199 61.9158 6.46627 61.7816C5.93471 61.5972 5.37843 61.5122 4.82091 61.5302C4.43439 61.5247 4.04948 61.5853 3.68013 61.7097C3.37029 61.8013 3.08828 61.981 2.86293 62.2304C2.7594 62.3476 2.67879 62.4866 2.62599 62.6389C2.57319 62.7911 2.54931 62.9535 2.5558 63.1162C2.54483 63.4783 2.63039 63.8362 2.8026 64.1456C3.00772 64.4747 3.27976 64.7471 3.59786 64.9416C3.95984 65.1869 4.43151 65.4742 5.01835 65.8094C5.47905 66.0547 5.91782 66.3181 6.34561 66.5934C6.75564 66.8597 7.14133 67.1684 7.49736 67.515C7.82957 67.8406 8.1014 68.2327 8.29811 68.6701C8.50158 69.1327 8.60305 69.6415 8.59427 70.1544C8.61854 70.9188 8.42709 71.673 8.04582 72.3149C7.66581 72.8997 7.13789 73.351 6.5266 73.6136C5.78915 73.9253 5.00276 74.0758 4.21213 74.0565ZM14.5834 74.0565C13.9705 74.0991 13.3567 73.9911 12.7872 73.7404C12.2176 73.4898 11.7069 73.1028 11.2927 72.6081C10.4722 71.4702 10.0625 70.0436 10.1409 68.5983C10.1252 67.6485 10.3012 66.7066 10.6565 65.8393C10.9833 65.0548 11.5084 64.3884 12.1702 63.9182C12.9064 63.4241 13.7577 63.1726 14.6218 63.194C15.0958 63.1791 15.5686 63.2519 16.0203 63.4094C16.4489 63.5679 16.8442 63.8182 17.1831 64.1456C17.5374 64.5003 17.8164 64.9354 18.0002 65.4203C18.2147 66.0045 18.3227 66.6287 18.3184 67.2577V68.323C18.3172 68.6026 18.2896 68.8814 18.2361 69.1549H11.3914L11.5669 67.7125H16.2507C16.2811 67.2396 16.2516 66.7643 16.1629 66.3001C16.0986 65.9044 15.9199 65.5416 15.6529 65.2647C15.3342 64.9809 14.9277 64.8417 14.5176 64.8757C14.1019 64.8668 13.6945 65.0031 13.3548 65.2647C12.9667 65.6066 12.6914 66.0773 12.5706 66.6053C12.3676 67.4522 12.2908 68.329 12.3402 69.2028C12.3416 69.8296 12.4847 70.4463 12.757 70.9982C12.9879 71.4215 13.3353 71.7545 13.7497 71.9498C14.1912 72.1473 14.6657 72.2455 15.1428 72.2371C15.4258 72.2341 15.7077 72.2084 15.9874 72.1593C16.3017 72.112 16.6127 72.0438 16.9198 71.9558C17.1567 71.8954 17.386 71.8008 17.5999 71.6745L18.0057 73.045C17.7397 73.2641 17.4435 73.4358 17.1282 73.5538C16.7295 73.7064 16.3203 73.8243 15.9052 73.9069C15.4697 74.0008 15.0276 74.0511 14.5834 74.0565ZM32.0626 63.3256L25.6841 70.6212L25.8377 70.0825L25.876 71.878V73.8769H23.6822V58.5019H25.876V66.1385L25.7773 68.7479L25.3221 68.3709L29.4574 63.3256H32.0626ZM26.8303 68.8257L28.3276 67.2218L32.441 73.8829H29.9291L26.8303 68.8257ZM37.3716 74.0565C36.6631 74.0798 35.9592 73.9242 35.3149 73.6016C34.7711 73.3159 34.3002 72.8884 33.9438 72.3568C33.5887 71.8166 33.3318 71.2071 33.1869 70.5613C33.0274 69.8567 32.9518 69.1325 32.9621 68.4068C32.9476 67.413 33.1626 66.4312 33.5873 65.552C33.9662 64.804 34.5384 64.1941 35.2327 63.7985C35.9528 63.3931 36.7534 63.1876 37.5636 63.2C38.4868 63.1474 39.4007 63.4225 40.1687 63.984C40.8163 64.5038 41.304 65.2259 41.5673 66.0547C41.858 66.9471 41.9978 67.8903 41.9786 68.8377C41.9924 69.8352 41.7775 70.8207 41.3534 71.7044C40.977 72.456 40.4042 73.0685 39.708 73.464C38.9867 73.8709 38.1835 74.0745 37.3716 74.0565ZM37.432 72.3508C37.767 72.379 38.1028 72.3063 38.4026 72.1406C38.7024 71.9749 38.9547 71.7226 39.1322 71.4112C39.5424 70.5937 39.7325 69.6663 39.6806 68.736C39.6873 68.0889 39.6097 67.4441 39.4503 66.8208C39.33 66.3001 39.0859 65.8232 38.7428 65.4383C38.576 65.2638 38.3791 65.1273 38.1634 65.0369C37.9477 64.9465 37.7177 64.9039 37.4868 64.9116C37.1558 64.8827 36.8238 64.9507 36.5249 65.1085C36.2261 65.2663 35.9712 65.5082 35.7866 65.8094C35.3743 66.6108 35.1837 67.5255 35.2381 68.4427C35.2303 69.0973 35.3059 69.7499 35.463 70.3818C35.5881 70.9228 35.8414 71.4178 36.1979 71.8181C36.3607 71.9922 36.5538 72.1289 36.7657 72.2204C36.9776 72.3118 37.2041 72.3562 37.432 72.3508ZM44.0134 73.9069V63.3436H45.922L46.0591 64.7859L46.2346 65.4922V73.9069H44.0134ZM46.114 66.4318L45.9878 64.7859C46.1177 64.5021 46.3053 64.2544 46.5363 64.0618C46.8353 63.799 47.1679 63.5853 47.5235 63.4274C47.8978 63.2598 48.2981 63.1724 48.7027 63.17C48.8854 63.1599 49.0684 63.1599 49.2511 63.17C49.3718 63.1772 49.4903 63.2143 49.5967 63.2778V65.5819C49.4734 65.5095 49.3427 65.4533 49.2073 65.4144C48.9363 65.3427 48.6576 65.3125 48.3791 65.3246C48.0373 65.3178 47.6973 65.3786 47.3754 65.5041C47.1053 65.6043 46.8503 65.7475 46.6186 65.9291C46.4354 66.0775 46.2659 66.2463 46.114 66.4318ZM54.1708 74.0565C53.7272 74.0684 53.2862 73.9787 52.8764 73.7932C52.5115 73.6086 52.2167 73.2912 52.0428 72.8954C51.8266 72.3421 51.7272 71.7428 51.7521 71.1419V65.0613H50.5235V63.7625C50.9568 63.6309 51.2859 63.5112 51.5272 63.4094C51.6528 63.3588 51.7668 63.279 51.8615 63.1757C51.9562 63.0724 52.0292 62.948 52.0757 62.811C52.125 62.6673 52.1744 62.4997 52.2347 62.3082C52.295 62.1167 52.3663 61.9013 52.4376 61.6678L52.668 60.9197H54.0007V63.3137H56.6827V65.0493H54.0007V69.9509C53.9876 70.4476 54.0172 70.9444 54.0885 71.4351C54.0956 71.5549 54.128 71.6713 54.1832 71.7751C54.2384 71.8789 54.3148 71.9674 54.4066 72.0336C54.6221 72.1288 54.8541 72.1719 55.0867 72.1593C55.271 72.1575 55.4541 72.1377 55.6351 72.0994C55.8349 72.0587 56.0326 72.0067 56.2275 71.9438C56.3794 71.8942 56.5264 71.8283 56.6662 71.7463L57.0063 73.1228C56.7891 73.3036 56.551 73.4526 56.2988 73.5657C55.9763 73.7135 55.6417 73.8297 55.3006 73.9128C54.9301 74.0069 54.5511 74.0551 54.1708 74.0565ZM59.4743 73.9069V65.0732H58.0867V63.6967L59.4743 63.3256V62.3681C59.4557 61.6982 59.5659 61.0315 59.7979 60.411C59.991 59.9278 60.2861 59.5013 60.659 59.1662C61.0009 58.8605 61.3966 58.6344 61.8217 58.5019C62.2214 58.378 62.6347 58.3136 63.0502 58.3103C63.344 58.3077 63.6376 58.3317 63.9277 58.3822C64.1131 58.4079 64.2963 58.448 64.4762 58.5019V60.2973C64.2976 60.2333 64.114 60.1873 63.9277 60.1597C63.646 60.119 63.3618 60.101 63.0776 60.1058C62.8927 60.1008 62.7092 60.1419 62.541 60.2259C62.3728 60.3099 62.2243 60.4346 62.1069 60.5906C61.8254 61.0172 61.6913 61.5387 61.7285 62.0628V63.3077H64.0429V65.0553H61.7285V73.8889L59.4743 73.9069ZM66.9936 61.5781C66.6443 61.5858 66.3053 61.449 66.0448 61.195C65.9125 61.0703 65.8078 60.9145 65.7385 60.7394C65.6691 60.5642 65.637 60.3742 65.6444 60.1836C65.6428 59.8993 65.7212 59.621 65.8693 59.3876C66.0091 59.1542 66.1967 58.9597 66.4177 58.8191C66.6415 58.6784 66.8949 58.6042 67.1527 58.6036C67.3276 58.5843 67.5043 58.6066 67.6706 58.6689C67.8369 58.7312 67.9888 58.8321 68.116 58.9646C68.2432 59.0971 68.3425 59.2581 68.4072 59.4365C68.4719 59.6149 68.5005 59.8065 68.4909 59.9981C68.4959 60.2101 68.4583 60.4207 68.3805 60.6152C68.3028 60.8096 68.187 60.983 68.0411 61.1232C67.7587 61.4164 67.3834 61.5794 66.9936 61.5781ZM66.0009 73.9069V63.3436H68.1947V73.9069H66.0009ZM71.2222 73.9069V58.46H73.4599V73.9069H71.2222ZM76.4051 73.9069V63.3436H78.4289V64.4628C78.7107 64.2421 79.0057 64.0421 79.3119 63.8643C79.6785 63.6591 80.0624 63.4928 80.4581 63.3675C80.8643 63.2337 81.2846 63.1573 81.7086 63.1401C82.2852 63.0914 82.8631 63.2134 83.3814 63.4932C83.8279 63.7879 84.1611 64.2494 84.3193 64.7919C84.5414 65.5861 84.6412 66.4156 84.6154 67.2457V73.8769H82.4216V67.4732C82.4317 67.012 82.3874 66.5514 82.29 66.1026C82.2603 65.9479 82.2028 65.801 82.1209 65.6706C82.0391 65.5401 81.9343 65.4287 81.8128 65.3425C81.4998 65.169 81.1473 65.0983 80.7982 65.1391C80.4458 65.1605 80.0983 65.2392 79.7671 65.3725C79.37 65.5227 78.9993 65.7453 78.6702 66.0308V73.8769L76.4051 73.9069ZM84.5057 66.0787L84.056 64.5585C84.325 64.3267 84.6154 64.1262 84.9225 63.96C85.3128 63.7351 85.7225 63.5526 86.1456 63.4154C86.5962 63.2689 87.0631 63.1904 87.5332 63.182C88.1137 63.1467 88.6929 63.2723 89.2169 63.5471C89.6778 63.8272 90.0275 64.2833 90.1987 64.8279C90.4405 65.6161 90.5497 66.445 90.5223 67.2757V73.9188H88.301V67.515C88.3104 67.0523 88.2681 66.5901 88.1749 66.1385C88.1166 65.83 87.9491 65.559 87.7087 65.3844C87.3976 65.2109 87.0469 65.1402 86.6995 65.181C86.3222 65.1994 85.9508 65.2906 85.6026 65.4503C85.2137 65.6072 84.845 65.8184 84.5057 66.0787ZM96.4675 73.9069V63.3436H98.4693V64.4628C98.7514 64.2425 99.0464 64.0425 99.3524 63.8643C99.7206 63.6584 100.106 63.492 100.504 63.3675C100.908 63.2334 101.327 63.1569 101.749 63.1401C102.317 63.0969 102.884 63.2187 103.394 63.4932C103.841 63.7882 104.174 64.2495 104.332 64.7919C104.554 65.5867 104.654 66.4156 104.628 67.2457V73.8769H102.435V67.4732C102.445 67.012 102.4 66.5514 102.303 66.1026C102.273 65.9479 102.216 65.801 102.134 65.6706C102.052 65.5401 101.947 65.4287 101.826 65.3425C101.515 65.169 101.164 65.0983 100.817 65.1391C100.462 65.1599 100.113 65.2385 99.7802 65.3725C99.3734 65.5196 98.9931 65.7423 98.6558 66.0308V73.8769L96.4675 73.9069ZM104.568 66.0787L104.118 64.5585C104.389 64.3258 104.681 64.1252 104.99 63.96C105.38 63.7339 105.79 63.5514 106.214 63.4154C106.664 63.2683 107.131 63.1897 107.601 63.182C108.18 63.1468 108.757 63.2724 109.279 63.5471C109.73 63.829 110.071 64.2799 110.239 64.8159C110.48 65.6041 110.59 66.433 110.563 67.2637V73.9069H108.336V67.5031C108.344 67.0407 108.304 66.5788 108.215 66.1266C108.157 65.8181 107.989 65.5473 107.749 65.3725C107.436 65.1996 107.084 65.1289 106.735 65.169C106.357 65.1877 105.986 65.2789 105.638 65.4383C105.258 65.6012 104.898 65.8164 104.568 66.0787ZM117.226 74.0565C116.614 74.0979 116 73.9893 115.431 73.7388C114.862 73.4882 114.351 73.1019 113.936 72.6081C113.115 71.4702 112.706 70.0436 112.784 68.5983C112.771 67.6488 112.947 66.7076 113.3 65.8393C113.627 65.0534 114.154 64.3866 114.819 63.9182C115.553 63.425 116.403 63.1736 117.265 63.194C117.739 63.1791 118.212 63.252 118.663 63.4094C119.094 63.5662 119.492 63.8164 119.832 64.1456C120.184 64.5009 120.461 64.9359 120.643 65.4203C120.86 66.0039 120.97 66.6281 120.967 67.2577V68.323C120.965 68.6023 120.939 68.8807 120.89 69.1549H114.034L114.204 67.7125H118.888C118.918 67.2398 118.89 66.765 118.806 66.3001C118.74 65.9038 118.559 65.5411 118.29 65.2647C117.972 64.9809 117.565 64.8417 117.155 64.8757C116.74 64.8674 116.332 65.0037 115.992 65.2647C115.606 65.6072 115.333 66.0779 115.214 66.6053C115.006 67.4513 114.928 68.329 114.983 69.2028C114.982 69.8299 115.125 70.4473 115.4 70.9982C115.629 71.4231 115.977 71.7566 116.393 71.9498C116.834 72.1484 117.308 72.2462 117.786 72.2371C118.069 72.2341 118.351 72.2078 118.631 72.1593C118.943 72.1118 119.252 72.0439 119.557 71.9558C119.795 71.8966 120.024 71.802 120.237 71.6745L120.649 73.045C120.381 73.2641 120.083 73.4358 119.766 73.5538C119.367 73.707 118.958 73.8249 118.543 73.9069C118.109 74.0008 117.669 74.0511 117.226 74.0565ZM126.408 74.0565C125.722 74.0659 125.049 73.8621 124.466 73.4688C123.883 73.0756 123.415 72.5092 123.117 71.8361C122.728 70.9501 122.54 69.9752 122.568 68.9933C122.546 67.9407 122.757 66.8977 123.183 65.953C123.561 65.1107 124.153 64.4045 124.888 63.9182C125.666 63.4208 126.554 63.17 127.455 63.194C127.962 63.179 128.468 63.2538 128.952 63.4154C129.224 63.4965 129.482 63.6259 129.715 63.7985L129.029 65.3366C128.836 65.1714 128.608 65.0623 128.366 65.0194C128.038 64.9554 127.706 64.9253 127.373 64.9296C126.922 64.9267 126.482 65.075 126.111 65.3545C125.707 65.683 125.395 66.1289 125.212 66.6413C124.969 67.3154 124.852 68.0357 124.866 68.7599C124.783 69.6679 124.976 70.5807 125.415 71.3573C125.609 71.627 125.86 71.8413 126.147 71.982C126.433 72.1227 126.747 72.1856 127.06 72.1653C127.458 72.1719 127.852 72.0862 128.217 71.9139C128.506 71.7864 128.779 71.6195 129.029 71.4172L129.358 72.6141C129.221 72.7697 129.035 72.9613 128.81 73.2126C128.53 73.4644 128.215 73.6664 127.877 73.8111C127.407 73.9966 126.907 74.0799 126.408 74.0565ZM129.15 73.9069V72.5303L129.018 72.4406V65.0613L129.09 65.0074L129.018 62.7152V58.46H131.212V73.9069H129.15ZM140.404 74.0565C139.737 74.0643 139.081 73.8739 138.506 73.5059C137.901 73.1037 137.417 72.517 137.113 71.8181C136.724 70.9322 136.536 69.9572 136.565 68.9753C136.543 67.9235 136.752 66.8811 137.174 65.935C137.554 65.094 138.146 64.3883 138.879 63.9002C139.659 63.4034 140.549 63.1527 141.452 63.176C141.958 63.1611 142.464 63.2359 142.949 63.3975C143.221 63.4785 143.478 63.6079 143.711 63.7805L143.026 65.3186C142.831 65.1524 142.601 65.0432 142.357 65.0014C142.031 64.9374 141.7 64.9074 141.369 64.9116C140.919 64.9086 140.478 65.0569 140.108 65.3366C139.702 65.663 139.39 66.1095 139.208 66.6233C138.966 67.2975 138.848 68.0177 138.863 68.7419C138.782 69.6498 138.974 70.5618 139.411 71.3394C139.606 71.6081 139.857 71.8219 140.144 71.9625C140.43 72.1031 140.743 72.1665 141.057 72.1473C141.454 72.1533 141.849 72.0677 142.214 71.896C142.503 71.7684 142.775 71.6015 143.026 71.3992L143.355 72.5962C143.218 72.7518 143.026 72.9433 142.806 73.1947C142.525 73.4476 142.208 73.6497 141.868 73.7932C141.401 73.9851 140.903 74.0746 140.404 74.0565ZM143.146 73.9069V72.5303L143.015 72.4406V65.0613L143.086 65.0074L143.015 62.7152V58.46H145.209V73.9069H143.146ZM151.922 74.0565C151.309 74.0974 150.696 73.9887 150.126 73.7381C149.557 73.4875 149.046 73.1015 148.631 72.6081C147.81 71.4702 147.401 70.0436 147.479 68.5983C147.474 67.6458 147.661 66.7037 148.028 65.8393C148.353 65.0536 148.878 64.3867 149.541 63.9182C150.278 63.4241 151.129 63.1726 151.993 63.194C152.465 63.1794 152.936 63.2522 153.386 63.4094C153.817 63.5662 154.214 63.8164 154.554 64.1456C154.907 64.5009 155.184 64.9359 155.366 65.4203C155.583 66.0039 155.692 66.6281 155.689 67.2577V68.323C155.69 68.6025 155.664 68.8814 155.613 69.1549H148.702L148.872 67.7125H153.567C153.602 67.2399 153.574 66.7642 153.485 66.3001C153.421 65.9044 153.242 65.5415 152.975 65.2647C152.654 64.9852 152.249 64.8465 151.839 64.8757C151.424 64.8655 151.016 65.002 150.677 65.2647C150.288 65.6065 150.013 66.0772 149.892 66.6053C149.684 67.4513 149.607 68.329 149.662 69.2028C149.661 69.8299 149.804 70.4473 150.079 70.9982C150.308 71.4231 150.656 71.7566 151.072 71.9498C151.513 72.1473 151.987 72.2455 152.465 72.2371C152.748 72.2341 153.03 72.2078 153.309 72.1593C153.623 72.1114 153.934 72.0438 154.242 71.9558C154.477 71.8971 154.704 71.802 154.916 71.6745L155.328 73.045C155.061 73.2627 154.765 73.4342 154.45 73.5538C154.051 73.7064 153.642 73.8243 153.227 73.9069C152.797 73.9996 152.36 74.0499 151.922 74.0565ZM160.746 78.4553V76.5103C160.891 76.5587 161.04 76.5905 161.19 76.606C161.341 76.6312 161.493 76.6449 161.646 76.6479C161.949 76.6378 162.248 76.5689 162.529 76.4444C162.914 76.2679 163.245 75.9752 163.483 75.6006C163.849 75.0118 164.089 74.341 164.185 73.6375L164.306 73.9069H163.368L159.929 63.3256H162.304L164.212 69.909L165.013 72.9672H164.536L165.249 69.909L166.851 63.3256H169.231L166.05 74.2121C165.773 75.2696 165.309 76.2577 164.684 77.1207C164.235 77.7295 163.633 78.1811 162.951 78.4194C162.773 78.4841 162.589 78.5302 162.403 78.5571C162.222 78.5936 162.038 78.6139 161.854 78.6169C161.732 78.6235 161.609 78.6235 161.487 78.6169L161.026 78.5571C160.929 78.538 160.835 78.5037 160.746 78.4553ZM170.756 73.9069V63.3436H172.763V64.4807C173.047 64.2609 173.344 64.0611 173.651 63.8822C174.023 63.6781 174.41 63.5099 174.809 63.3795C175.22 63.2407 175.646 63.1622 176.076 63.1461C176.485 63.0918 176.9 63.1431 177.288 63.2959C177.675 63.4487 178.025 63.6988 178.308 64.0259C178.768 64.6405 178.999 65.722 178.999 67.2697V73.8829H176.761V67.4791C176.807 66.8428 176.698 66.2045 176.443 65.6298C176.229 65.2588 175.79 65.0972 175.116 65.1331C174.892 65.1466 174.669 65.1847 174.452 65.2468C174.192 65.3258 173.937 65.4257 173.69 65.546C173.429 65.68 173.183 65.8446 172.955 66.0368V73.8829L170.756 73.9069ZM185.432 78.6947C184.333 78.7594 183.24 78.4835 182.279 77.8988C181.921 77.6506 181.631 77.3028 181.439 76.8914C181.246 76.48 181.157 76.02 181.182 75.5587C181.174 75.1936 181.264 74.834 181.439 74.5233C181.606 74.2198 181.828 73.9571 182.092 73.7513C182.341 73.5436 182.619 73.382 182.915 73.2725L184.269 73.458L183.885 73.8231C183.731 73.9702 183.603 74.1466 183.507 74.3438C183.39 74.6104 183.336 74.9044 183.348 75.1996C183.34 75.5587 183.414 75.9142 183.562 76.235C183.714 76.5432 183.958 76.7862 184.253 76.9232C184.66 77.1098 185.1 77.1957 185.542 77.1746C185.993 77.1793 186.443 77.1189 186.88 76.995C187.239 76.9059 187.573 76.7254 187.856 76.4684C187.974 76.3586 188.068 76.2217 188.132 76.0675C188.195 75.9133 188.227 75.7457 188.224 75.5766C188.232 75.2637 188.17 74.9534 188.043 74.6729C187.899 74.389 187.662 74.1752 187.379 74.0744C186.916 73.9165 186.432 73.8476 185.948 73.8709H184.774C184.478 73.8709 184.226 73.871 183.99 73.835C183.783 73.8141 183.578 73.7781 183.375 73.7273C183.299 73.708 183.227 73.6735 183.162 73.6256C183.095 73.5802 183.023 73.5459 182.948 73.5238C182.582 73.4114 182.266 73.1612 182.054 72.8176C181.892 72.5274 181.806 72.1939 181.807 71.8541C181.818 71.5907 181.878 71.3316 181.982 71.094C182.106 70.8151 182.272 70.5619 182.476 70.3459C182.716 70.0908 182.989 69.8769 183.288 69.7115L184.62 70.0287C184.406 70.1315 184.218 70.2896 184.072 70.4895C183.923 70.6756 183.84 70.913 183.836 71.1598C183.82 71.2962 183.835 71.4348 183.88 71.5632C183.925 71.6916 183.999 71.8059 184.094 71.896C184.365 72.0523 184.671 72.1208 184.977 72.0935H186.716C187.336 72.0755 187.956 72.1599 188.553 72.3448C188.961 72.4741 189.337 72.7057 189.65 73.0211C189.902 73.2814 190.091 73.6064 190.198 73.9667C190.301 74.3148 190.353 74.6783 190.352 75.044C190.36 75.5887 190.225 76.1246 189.962 76.5881C189.692 77.056 189.326 77.4493 188.893 77.7372C188.407 78.0597 187.878 78.296 187.324 78.4374C186.705 78.6066 186.07 78.6931 185.432 78.6947ZM185.344 70.3159C184.653 70.3277 183.967 70.1809 183.332 69.885C182.771 69.6348 182.286 69.2206 181.928 68.6881C181.585 68.1517 181.406 67.5106 181.417 66.8567C181.392 66.143 181.57 65.4381 181.928 64.8398C182.275 64.2962 182.764 63.8791 183.332 63.6428C183.982 63.3676 184.674 63.2275 185.372 63.2299C186.07 63.207 186.766 63.3288 187.423 63.589C187.996 63.8164 188.497 64.2196 188.865 64.75C189.243 65.3332 189.436 66.0352 189.414 66.749C189.445 67.4333 189.274 68.1104 188.928 68.682C188.582 69.2535 188.078 69.6896 187.489 69.9269C186.804 70.2058 186.075 70.3339 185.344 70.304V70.3159ZM185.377 68.8257C185.861 68.8539 186.339 68.7065 186.737 68.4068C186.93 68.1989 187.076 67.9456 187.164 67.6665C187.252 67.3874 187.281 67.0899 187.248 66.7969C187.286 66.2437 187.129 65.6953 186.809 65.2647C186.631 65.0792 186.42 64.9369 186.188 64.8471C185.956 64.7574 185.71 64.7222 185.465 64.7441C185.141 64.7404 184.819 64.795 184.511 64.9056C184.228 65.0153 183.989 65.2263 183.831 65.5041C183.639 65.9306 183.554 66.4047 183.584 66.8786C183.614 67.3525 183.757 67.8094 184.001 68.2033C184.167 68.4213 184.379 68.5919 184.618 68.7003C184.858 68.8087 185.119 68.8518 185.377 68.8257ZM188.295 65.1211L187.79 64.1336C188.001 63.8959 188.252 63.7067 188.531 63.577C188.921 63.373 189.349 63.2706 189.781 63.2778H190.807V65.1211H188.295ZM191.915 73.2605L192.195 71.501C192.366 71.6242 192.55 71.7248 192.743 71.8002C193.067 71.942 193.401 72.0557 193.741 72.1413C194.135 72.2435 194.538 72.2977 194.942 72.3029C195.373 72.3404 195.804 72.2384 196.182 72.0097C196.312 71.9219 196.42 71.7984 196.493 71.6514C196.566 71.5044 196.602 71.339 196.599 71.1718C196.6 71.0459 196.578 70.921 196.533 70.8048C196.489 70.6885 196.424 70.5833 196.341 70.4955C196.134 70.2775 195.895 70.0994 195.633 69.9688C195.337 69.8072 194.997 69.6397 194.624 69.4601C194.117 69.229 193.634 68.9401 193.182 68.5983C192.803 68.3163 192.487 67.9464 192.255 67.515C192.032 67.0635 191.924 66.5552 191.942 66.0428C191.933 65.4628 192.114 64.8982 192.452 64.4508C192.803 64.0121 193.256 63.6853 193.763 63.5052C194.353 63.2891 194.973 63.1838 195.595 63.194C196.16 63.1818 196.725 63.2523 197.273 63.4035C197.599 63.4836 197.916 63.6041 198.217 63.7625L197.931 65.558C197.776 65.4355 197.607 65.3369 197.427 65.2647C197.18 65.1536 196.922 65.0713 196.659 65.0194C196.37 64.9596 196.076 64.9295 195.781 64.9296C195.331 64.9002 194.882 64.9906 194.471 65.1929C194.341 65.2578 194.231 65.3614 194.154 65.4917C194.076 65.622 194.034 65.7736 194.032 65.9291C194.018 66.1143 194.05 66.3002 194.125 66.4675C194.199 66.6348 194.313 66.7774 194.454 66.8807C194.802 67.129 195.169 67.3433 195.551 67.521C196.114 67.8029 196.663 68.1165 197.196 68.4606C197.623 68.7287 197.996 69.0868 198.293 69.514C198.568 69.9383 198.709 70.4488 198.694 70.9683C198.719 71.4094 198.644 71.8504 198.476 72.2523C198.307 72.6542 198.051 73.0046 197.728 73.2725C196.954 73.8387 196.032 74.1139 195.101 74.0565C194.649 74.0601 194.198 74.02 193.752 73.9368C193.365 73.8692 192.984 73.7692 192.611 73.6375C192.365 73.5466 192.13 73.4198 191.915 73.2605ZM203.74 74.0565C203.294 74.0678 202.852 73.9781 202.44 73.7932C202.076 73.6085 201.783 73.2909 201.612 72.8954C201.39 72.3436 201.289 71.7435 201.315 71.1419V65.0613H200.092V63.7625C200.52 63.6309 200.855 63.5112 201.09 63.4094C201.216 63.3587 201.33 63.279 201.425 63.1757C201.519 63.0724 201.592 62.948 201.639 62.811C201.687 62.6673 201.742 62.4997 201.803 62.3082L202.001 61.6678L202.231 60.9197H203.564V63.3137H206.219V65.0493H203.537V69.9509C203.523 70.4476 203.553 70.9444 203.624 71.4351C203.633 71.5553 203.666 71.6717 203.722 71.7755C203.778 71.8792 203.856 71.9676 203.948 72.0336C204.161 72.1288 204.392 72.1719 204.623 72.1593C204.807 72.1575 204.99 72.1377 205.171 72.0994C205.371 72.0587 205.568 72.0067 205.763 71.9438C205.916 71.8954 206.063 71.8295 206.202 71.7463L206.542 73.1228C206.327 73.3036 206.091 73.4525 205.84 73.5657C205.516 73.7135 205.18 73.8297 204.836 73.9128C204.477 74.0045 204.109 74.0527 203.74 74.0565ZM212.252 74.0565C211.639 74.0979 211.025 73.9893 210.456 73.7388C209.887 73.4882 209.376 73.1019 208.961 72.6081C208.14 71.4702 207.731 70.0436 207.809 68.5983C207.793 67.6485 207.969 66.7065 208.325 65.8393C208.652 65.0534 209.179 64.3866 209.844 63.9182C210.578 63.4239 211.428 63.1723 212.29 63.194C212.764 63.1791 213.237 63.252 213.688 63.4094C214.12 63.5662 214.517 63.8164 214.857 64.1456C215.209 64.5009 215.486 64.9359 215.668 65.4203C215.885 66.0039 215.995 66.6281 215.992 67.2577V68.323C215.99 68.6023 215.964 68.8807 215.915 69.1549H209.07L209.246 67.7125H213.93C213.959 67.2398 213.932 66.765 213.848 66.3001C213.781 65.9038 213.601 65.5411 213.332 65.2647C213.013 64.9809 212.607 64.8417 212.197 64.8757C211.781 64.8674 211.374 65.0037 211.034 65.2647C210.648 65.6072 210.374 66.0779 210.255 66.6053C210.048 67.4515 209.968 68.3287 210.019 69.2028C210.022 69.8301 210.167 70.4469 210.442 70.9982C210.669 71.4226 211.015 71.7561 211.429 71.9498C211.871 72.1473 212.345 72.2449 212.822 72.2371C213.105 72.2342 213.387 72.2082 213.667 72.1593C213.981 72.1125 214.292 72.0445 214.599 71.9558C214.836 71.8953 215.065 71.8007 215.279 71.6745L215.69 73.045C215.422 73.2629 215.124 73.4341 214.807 73.5538C214.409 73.707 214 73.8249 213.584 73.9069C213.145 74.002 212.699 74.0517 212.252 74.0565Z" fill="#E54CCB"/>
</g>
<defs>
<clipPath id="clip0_341_2631">
<rect width="266" height="79" fill="white"/>
</clipPath>
</defs>
</svg>
