<svg width="70" height="70" viewBox="0 0 70 70" fill="none" xmlns="http://www.w3.org/2000/svg">
<circle cx="35" cy="35" r="35" fill="#BBE74A"/>
<path d="M30.4127 14C21.339 14 14 21.4773 14 30.7222C14 39.967 21.339 47.4444 30.4127 47.4444C33.6523 47.4444 36.6505 46.4761 39.1923 44.8315C39.1923 44.8315 46.1014 56.6034 51.0493 56.9121C55.9973 57.2208 56.9627 56.9121 55.1525 52.7315C53.3423 48.551 43.4464 40.8354 43.4464 40.8354C45.5508 38.0228 46.8255 34.5377 46.8255 30.7222C46.8255 21.4773 39.4865 14 30.4127 14ZM30.4127 17.9346C37.3632 17.9346 42.9636 23.6406 42.9636 30.7222C42.9636 37.8037 37.3632 43.5097 30.4127 43.5097C23.4622 43.5097 17.8618 37.8037 17.8618 30.7222C17.8618 23.6406 23.4622 17.9346 30.4127 17.9346Z" fill="#1B1B1B"/>
</svg>
