<svg width="42" height="43" viewBox="0 0 42 43" fill="none" xmlns="http://www.w3.org/2000/svg">
<path d="M16.4127 0C7.33896 0 0 7.47734 0 16.7222C0 25.967 7.33896 33.4444 16.4127 33.4444C19.6523 33.4444 22.6505 32.4761 25.1923 30.8315C25.1923 30.8315 32.1014 42.6034 37.0493 42.9121C41.9973 43.2208 42.9627 42.9121 41.1525 38.7315C39.3423 34.551 29.4464 26.8354 29.4464 26.8354C31.5508 24.0228 32.8255 20.5377 32.8255 16.7222C32.8255 7.47734 25.4865 0 16.4127 0ZM16.4127 3.93463C23.3632 3.93463 28.9636 9.64061 28.9636 16.7222C28.9636 23.8037 23.3632 29.5097 16.4127 29.5097C9.46221 29.5097 3.86182 23.8037 3.86182 16.7222C3.86182 9.64061 9.46221 3.93463 16.4127 3.93463Z" fill="#1B1B1B"/>
</svg>
