<svg width="44" height="41" viewBox="0 0 44 41" fill="none" xmlns="http://www.w3.org/2000/svg">
<path d="M28.1667 18.375H23.8333V10.2083C23.8333 9.66685 23.6051 9.14754 23.1987 8.76466C22.7924 8.38177 22.2413 8.16667 21.6667 8.16667C21.092 8.16667 20.5409 8.38177 20.1346 8.76466C19.7283 9.14754 19.5 9.66685 19.5 10.2083V20.4167C19.5 20.9582 19.7283 21.4775 20.1346 21.8603C20.5409 22.2432 21.092 22.4583 21.6667 22.4583H28.1667C28.7413 22.4583 29.2924 22.2432 29.6987 21.8603C30.1051 21.4775 30.3333 20.9582 30.3333 20.4167C30.3333 19.8752 30.1051 19.3559 29.6987 18.973C29.2924 18.5901 28.7413 18.375 28.1667 18.375ZM21.6667 0C17.3814 0 13.1924 1.19742 9.62932 3.44083C6.06626 5.68424 3.28918 8.87289 1.64929 12.6035C0.00938782 16.3342 -0.419684 20.4393 0.416329 24.3998C1.25234 28.3602 3.31589 31.9981 6.34603 34.8534C9.37617 37.7088 13.2368 39.6533 17.4397 40.441C21.6426 41.2288 25.9991 40.8245 29.9581 39.2792C33.9172 37.7339 37.3011 35.1171 39.6818 31.7596C42.0626 28.4021 43.3333 24.4547 43.3333 20.4167C43.3269 15.0037 41.0422 9.81412 36.9803 5.98655C32.9184 2.15899 27.4111 0.00602002 21.6667 0ZM21.6667 36.75C18.2385 36.75 14.8872 35.7921 12.0368 33.9973C9.18634 32.2026 6.96468 29.6517 5.65276 26.6672C4.34085 23.6826 3.99759 20.3986 4.6664 17.2302C5.33521 14.0618 6.98605 11.1515 9.41016 8.86726C11.8343 6.583 14.9228 5.0274 18.2851 4.39717C21.6474 3.76695 25.1326 4.0904 28.2999 5.32663C31.4671 6.56287 34.1742 8.65635 36.0788 11.3424C37.9834 14.0284 39 17.1862 39 20.4167C38.9947 24.747 37.1669 28.8986 33.9174 31.9606C30.6679 35.0226 26.2621 36.745 21.6667 36.75Z" fill="#1B1B1B"/>
</svg>
