<svg width="55" height="47" viewBox="0 0 55 47" fill="none" xmlns="http://www.w3.org/2000/svg">
<path d="M16.1616 0.00179288C11.761 -0.00016232 7.68743 1.40465 4.73446 4.1686C1.78222 6.92978 0.000649674 11.0398 0.000406685 16.1625C0.000782894 21.5368 3.78164 26.5338 8.9019 31.4388C14.0232 36.3455 20.6112 41.1868 26.6411 46.2128C26.9967 46.4973 27.5504 46.4949 27.9045 46.2112C33.9322 41.1892 40.5075 36.3318 45.6426 31.4403C50.7821 26.5485 54.6073 21.5943 54.6089 16.1628C54.6094 10.984 52.7651 6.91698 49.8106 4.16732C46.8562 1.41765 42.8431 0.00227199 38.4471 4.62298e-05C33.9245 0.000890299 30.1035 2.85315 27.2731 5.74459C24.4541 2.87004 20.6751 0.00149017 16.1616 0.00179288Z" fill="#EE21CB"/>
</svg>
