<svg width="59" height="58" viewBox="0 0 59 58" fill="none" xmlns="http://www.w3.org/2000/svg">
<path d="M29.25 0C13.0956 0 0 12.8718 0 28.75C0 44.6282 13.0956 57.5 29.25 57.5C45.4043 57.5 58.5 44.6282 58.5 28.75C58.5 12.8718 45.4043 0 29.25 0ZM26.2197 53.215C20.67 52.5618 15.5353 50.12 11.5217 46.1751C6.78628 41.5207 4.17853 35.3324 4.17853 28.75C4.17853 22.8245 6.29297 17.219 10.1693 12.7635C10.2691 13.9407 10.5157 15.2028 10.4525 16.105C10.2219 19.394 9.8917 21.4523 11.8503 24.2271C12.6134 25.3079 12.8008 26.8572 13.1722 28.1081C13.5354 29.3319 14.9865 29.9738 15.9874 30.7278C18.0066 32.2495 19.9384 34.0182 22.0795 35.3574C23.4927 36.2413 24.3754 36.681 23.9615 38.376C23.6287 39.7391 23.5357 40.5788 22.8182 41.7932C22.5993 42.1638 23.6447 44.5463 23.9926 44.8883C25.047 45.9245 26.0933 46.8752 27.2426 47.8082C29.0244 49.2552 27.0695 51.1355 26.2197 53.215ZM46.9782 46.1751C43.3735 49.7181 38.8642 52.0476 33.9625 52.9592C34.6572 51.2707 35.8941 49.7704 37.0415 48.9007C38.0395 48.1438 39.2895 46.6879 39.8108 45.5347C40.3317 44.3831 41.0217 43.3847 41.7201 42.3257C42.7136 40.8192 39.2705 38.5473 38.1548 38.0711C35.6441 36.9997 33.7541 35.5541 31.5228 34.0108C29.933 32.9114 26.7054 34.585 24.9106 33.815C22.4523 32.7599 20.427 30.9267 18.2902 29.345C16.0852 27.7128 16.1918 25.8099 16.1918 23.4019C17.919 23.4646 20.376 22.9321 21.5227 24.2973C21.8845 24.7282 23.1286 26.6529 23.9614 25.969C24.6417 25.4102 23.4572 23.1702 23.2284 22.6435C22.5246 21.0243 24.8321 20.3927 26.0132 19.2947C27.5545 17.8622 30.8606 15.6155 30.5993 14.5887C30.338 13.5618 27.2912 10.6526 25.5018 11.1065C25.2336 11.1745 22.8725 13.6079 22.4163 13.9896C22.4284 13.1954 22.4405 12.4013 22.4529 11.6071C22.4606 11.1057 21.5011 10.5909 21.5457 10.2675C21.6582 9.45004 23.9732 7.96652 24.549 7.31549C24.1456 7.06766 22.7689 5.90536 22.3522 6.07593C21.3434 6.48921 20.204 6.77394 19.1952 7.18709C19.1952 6.84319 19.1527 6.52017 19.1021 6.20115C21.1337 5.31778 23.2767 4.70636 25.4738 4.38327L27.4544 5.1656L28.8527 6.79675L30.2483 8.21117L31.4682 8.59749L33.4059 6.80131L32.9062 5.51903V4.36641C36.7383 4.91349 40.3571 6.31864 43.5265 8.4854C42.9595 8.53529 42.3364 8.61726 41.6334 8.70517C41.343 8.53654 40.9705 8.45996 40.654 8.34261C41.5724 10.2835 42.5303 12.1976 43.5036 14.1128C44.5433 16.1586 46.8495 18.353 47.2545 20.5126C47.7318 23.0581 47.4006 25.3702 47.6618 28.3651C47.9132 31.249 50.9698 34.5258 50.9698 34.5258C50.9698 34.5258 52.3813 34.9984 53.5551 34.8338C52.4609 39.0887 50.2176 42.9908 46.9782 46.1751Z" fill="#7736D9"/>
</svg>
